<svg width="19" height="16" viewBox="0 0 19 16" fill="none" xmlns="http://www.w3.org/2000/svg">
<path d="M18.6503 6.54438C18.7191 6.61157 18.7737 6.69186 18.811 6.78051C18.8482 6.86916 18.8673 6.96438 18.8672 7.06054C18.867 7.1567 18.8476 7.25186 18.8101 7.34039C18.7726 7.42893 18.7177 7.50905 18.6487 7.57603L10.2357 15.7754C10.088 15.9194 9.88982 16 9.6835 16C9.47718 16 9.27903 15.9194 9.13129 15.7754L0.718315 7.57603C0.649418 7.50895 0.594656 7.42874 0.557264 7.34015C0.519872 7.25155 0.50061 7.15637 0.50061 7.06021C0.50061 6.96404 0.519872 6.86886 0.557264 6.78026C0.594656 6.69167 0.649418 6.61147 0.718315 6.54438C0.859609 6.40637 1.04929 6.32911 1.2468 6.32911C1.44431 6.32911 1.63398 6.40637 1.77528 6.54438L9.6835 14.2548L17.5949 6.54438C17.7361 6.40685 17.9255 6.32988 18.1226 6.32988C18.3197 6.32988 18.509 6.40685 18.6503 6.54438ZM18.6503 0.215273C18.7191 0.282461 18.7737 0.36275 18.811 0.451401C18.8482 0.540052 18.8673 0.635268 18.8672 0.731429C18.867 0.827591 18.8476 0.922748 18.8101 1.01128C18.7726 1.09982 18.7177 1.17994 18.6487 1.24692L10.2357 9.44628C10.088 9.59029 9.88982 9.67089 9.6835 9.67089C9.47718 9.67089 9.27903 9.59029 9.13129 9.44628L0.718315 1.24692C0.649418 1.17983 0.594656 1.09963 0.557264 1.01104C0.519873 0.922442 0.50061 0.827256 0.50061 0.731095C0.50061 0.634934 0.519873 0.539747 0.557264 0.451153C0.594656 0.36256 0.649418 0.282355 0.718315 0.215272C0.85961 0.0772622 1.04929 -7.78845e-07 1.2468 -7.70212e-07C1.44431 -7.61578e-07 1.63398 0.0772622 1.77528 0.215272L9.6835 7.92571L17.5949 0.215273C17.7361 0.0777364 17.9255 0.000771424 18.1226 0.000771432C18.3197 0.000771441 18.5091 0.0777364 18.6503 0.215273Z" fill="black" fill-opacity="0.5"/>
</svg>
