<svg width="260" height="229" viewBox="0 0 260 229" fill="none" xmlns="http://www.w3.org/2000/svg">
<g opacity="0.6">
<path d="M23.3463 166.021L31.8732 168.305L25.7834 191.033C24.1011 197.311 27.8261 203.76 34.1078 205.443L56.8461 211.536C62.1756 212.964 71.0577 215.343 85.2693 219.152L108.008 225.245C114.289 226.928 120.683 223.191 122.365 216.912L128.179 195.328C133.641 174.944 131.909 181.408 136.4 164.646L142.214 143.062C143.896 136.784 140.171 130.335 133.89 128.652L112.288 122.864L110.004 131.387C107.736 139.853 99.0153 144.885 90.5451 142.615C82.075 140.346 77.0388 131.628 79.3073 123.162L81.591 114.639L59.9897 108.851C53.7083 107.168 47.2578 110.889 45.5754 117.168L39.4856 139.896L30.9587 137.611C23.1139 135.509 15.0421 140.167 12.9411 148.008C10.8401 155.849 15.5015 163.919 23.3463 166.021Z" fill="#CAEDFF"/>
<path d="M86.4064 153.198C90.8161 154.379 94.0306 156.477 96.0499 159.492C98.1103 162.518 98.5773 166.132 97.4509 170.336C96.4129 174.21 94.3236 176.897 91.1832 178.396C88.095 179.866 84.4641 180.064 80.2905 178.989L78.7391 183.543L69.4662 181.058L72.2381 169.477L75.9473 170.471C79.1206 171.321 81.6365 171.576 83.4948 171.235C85.3944 170.904 86.6202 169.709 87.1724 167.648C87.5589 166.206 87.471 164.967 86.9089 163.933C86.3467 162.899 85.365 162.195 83.9637 161.819C82.4801 161.422 81.2101 161.545 80.154 162.19C79.1089 162.793 78.3931 163.816 78.0066 165.258L68.0537 162.592C68.6449 160.056 69.7674 157.927 71.4212 156.206C73.1163 154.495 75.2312 153.361 77.7659 152.804C80.3528 152.216 83.233 152.347 86.4064 153.198ZM69.9196 198.407C68.065 197.91 66.6837 196.966 65.7756 195.574C64.9198 194.152 64.7072 192.637 65.1379 191.03C65.5796 189.381 66.5266 188.155 67.9787 187.352C69.472 186.559 71.146 186.412 73.0005 186.909C74.8139 187.394 76.1485 188.348 77.0043 189.77C77.9013 191.203 78.1289 192.744 77.6872 194.393C77.2566 196 76.2945 197.2 74.8012 197.992C73.3601 198.755 71.7329 198.893 69.9196 198.407Z" fill="white"/>
<path d="M147.931 110.476L155.576 106.062L167.341 126.439C170.591 132.068 177.785 133.994 183.417 130.742L203.804 118.972C208.582 116.213 216.545 111.615 229.287 104.259L249.674 92.4887C255.305 89.2372 257.184 82.0738 253.934 76.4444L242.783 57.0714C232.231 38.7958 235.577 44.5905 226.9 29.5624L215.75 10.1896C212.499 4.56027 205.306 2.63454 199.674 5.88617L180.306 17.068L184.718 24.7094C189.1 32.2999 186.492 42.0244 178.898 46.4088C171.304 50.7933 161.578 48.1898 157.196 40.5993L152.784 32.9579L133.417 44.1396C127.785 47.3911 125.856 54.584 129.106 60.2134L140.871 80.5903L133.226 85.0042C126.192 89.0649 123.778 98.0661 127.837 105.096C131.896 112.126 140.898 114.536 147.931 110.476Z" fill="#FDCD9E"/>
<path d="M183.454 56.8202C187.407 54.5376 191.164 53.7482 194.723 54.4521C198.32 55.1346 201.206 57.3604 203.382 61.1293C205.387 64.6027 205.81 67.9799 204.65 71.2609C203.505 74.4836 201.077 77.1908 197.367 79.3825L199.49 83.6994L191.176 88.4994L184.947 78.3502L188.272 76.4302C191.117 74.7875 193.076 73.1885 194.149 71.6331C195.259 70.0564 195.28 68.3443 194.213 66.4968C193.467 65.2035 192.529 64.39 191.4 64.0563C190.272 63.7227 189.079 63.9185 187.823 64.6438C186.493 65.4118 185.682 66.3971 185.391 67.5998C185.079 68.7654 185.296 69.9949 186.042 71.2882L177.119 76.4402C175.744 74.2289 175.032 71.9299 174.985 69.5434C174.974 67.1355 175.667 64.8382 177.065 62.6516C178.479 60.4067 180.608 58.4629 183.454 56.8202ZM203.763 100.446C202.101 101.406 200.456 101.715 198.83 101.373C197.219 100.973 195.998 100.052 195.166 98.6109C194.313 97.1329 194.115 95.5964 194.574 94.0014C195.07 92.385 196.149 91.0969 197.811 90.1369C199.437 89.1982 201.056 88.929 202.666 89.3294C204.314 89.7084 205.564 90.6369 206.417 92.1149C207.249 93.5559 207.418 95.0846 206.922 96.701C206.442 98.259 205.389 99.5074 203.763 100.446Z" fill="white"/>
</g>
</svg>
