<svg width="273" height="479" viewBox="0 0 273 479" fill="none" xmlns="http://www.w3.org/2000/svg">
<g clip-path="url(#clip0_2566_41084)">
<path opacity="0.43" d="M191.149 167.112C230.273 193.269 259.947 236.682 269.611 285.721C279.275 334.76 268.094 388.732 238.328 426.889C204.684 470.016 148.201 490.097 97.8137 476.842C82.9016 473.127 68.9771 466.206 57.0083 456.56C40.3446 442.765 28.5723 422.963 19.8625 402.181C-0.222178 353.499 -5.22011 299.899 5.51743 248.339C11.8128 218.462 23.8504 189.242 44.2075 168.172C83.9972 126.989 147.783 138.118 191.149 167.112Z" fill="#FF9C87"/>
<path d="M111.033 158.387C107.297 160.227 104.352 163.358 102.743 167.202C101.133 171.045 100.968 175.342 102.277 179.298C102.967 181.222 103.854 183.069 104.923 184.811C110.068 193.671 116.467 201.74 123.922 208.767C125.591 201.27 126.499 193.623 126.631 185.943C126.766 180.306 125.696 174.705 123.49 169.516C120.912 164.349 116.455 160.366 111.033 158.387Z" fill="#240A19"/>
<path d="M111.112 158.506C110.684 156.88 110.679 155.172 111.097 153.544C111.515 151.916 112.342 150.422 113.5 149.204C114.658 147.986 116.108 147.084 117.712 146.585C119.316 146.086 121.021 146.005 122.665 146.351C123.122 144.512 124.003 142.805 125.236 141.367C126.469 139.928 128.022 138.798 129.769 138.067C133.375 136.473 137.378 136.01 141.253 136.738C145.127 137.467 148.689 139.353 151.471 142.148C154.167 141.256 157.029 140.98 159.847 141.339C162.551 141.688 165.034 143.018 166.825 145.076C168.069 146.751 168.828 148.736 169.018 150.814C169.209 152.892 168.823 154.982 167.903 156.855C165.985 160.59 162.816 163.532 158.95 165.165C155.109 166.769 151.06 167.821 146.923 168.289C142.294 169.118 137.576 169.334 132.89 168.931C124.865 167.995 117.621 163.294 111.112 158.506Z" fill="#240A19"/>
<path d="M118.615 201.016L122.083 223.424L154.759 222.505L152.839 215.038L151.165 208.492L121.442 201.66L118.615 201.016Z" fill="#FF836D"/>
<g style="mix-blend-mode:color-burn" opacity="0.33">
<path d="M121.443 201.66C121.747 204.724 122.798 207.666 124.505 210.228C126.211 212.789 128.521 214.892 131.23 216.351C134.046 217.803 137.144 218.621 140.309 218.75C143.474 218.878 146.629 218.313 149.552 217.094C150.78 216.646 151.9 215.946 152.841 215.038L151.167 208.491L121.443 201.66Z" fill="#FF836D"/>
</g>
<path d="M161.282 168.411L161.233 168.431L161.232 168.427C159.352 162.633 155.5 157.681 150.348 154.435C145.196 151.189 139.069 149.854 133.035 150.662C132.588 150.714 132.142 150.776 131.707 150.855C117.96 153.149 108.264 165.417 109.847 178.849C110.161 181.545 110.927 184.169 112.113 186.611C113.085 188.621 114.327 190.49 115.805 192.163L115.81 192.169C119.234 208.121 131.634 217.781 150.263 212.56C172.944 206.204 161.282 168.411 161.282 168.411Z" fill="#FF836D"/>
<path d="M140.307 181.982C140.382 182.48 140.306 182.989 140.092 183.445C139.877 183.9 139.533 184.282 139.102 184.542C138.67 184.803 138.172 184.929 137.669 184.906C137.166 184.883 136.681 184.712 136.275 184.414C135.87 184.116 135.561 183.704 135.389 183.231C135.216 182.757 135.188 182.244 135.306 181.754C135.425 181.265 135.686 180.821 136.057 180.48C136.427 180.138 136.89 179.914 137.387 179.836C138.058 179.734 138.743 179.902 139.29 180.305C139.838 180.707 140.204 181.31 140.307 181.982Z" fill="#240A19"/>
<path d="M158.684 177.944C158.752 178.402 158.683 178.871 158.486 179.291C158.288 179.71 157.971 180.062 157.574 180.301C157.177 180.541 156.718 180.657 156.255 180.636C155.792 180.615 155.346 180.458 154.972 180.183C154.599 179.909 154.314 179.53 154.156 179.094C153.997 178.658 153.971 178.185 154.08 177.734C154.189 177.284 154.43 176.876 154.771 176.561C155.111 176.247 155.537 176.041 155.995 175.968C156.613 175.874 157.244 176.029 157.748 176.4C158.252 176.77 158.588 177.325 158.684 177.944V177.944Z" fill="#240A19"/>
<path d="M148.242 178.533C150.715 180.047 152.727 182.207 154.062 184.781C154.321 185.287 154.47 185.841 154.498 186.408C154.527 186.975 154.435 187.542 154.229 188.071C154.022 188.6 153.706 189.079 153.301 189.476C152.896 189.874 152.411 190.181 151.879 190.377" stroke="#0E1219" stroke-width="0.49179" stroke-linecap="round" stroke-linejoin="round"/>
<path d="M148.225 190.606C148.354 190.361 148.524 190.14 148.729 189.953C148.81 189.88 148.906 189.827 149.011 189.796C149.115 189.766 149.225 189.76 149.333 189.778C149.713 189.867 149.857 190.309 149.962 190.638" stroke="#0E1219" stroke-width="0.49179" stroke-linecap="round" stroke-linejoin="round"/>
<path d="M151.604 195.262C150.834 194.709 149.913 194.405 148.965 194.391C148.018 194.377 147.088 194.654 146.303 195.185" stroke="#0E1219" stroke-width="0.38479" stroke-linecap="round" stroke-linejoin="round"/>
<path d="M131.245 177.533C131.231 177.789 131.277 178.044 131.379 178.278C131.482 178.512 131.638 178.719 131.835 178.881C132.098 179.037 132.389 179.138 132.692 179.18C132.995 179.221 133.303 179.201 133.598 179.121C135.229 178.836 136.745 178.087 137.963 176.964C138.16 176.815 138.325 176.629 138.449 176.416C138.573 176.204 138.653 175.968 138.686 175.724C138.715 174.07 136.067 172.924 134.692 173.365C133.815 173.717 133.041 174.283 132.439 175.011C131.837 175.739 131.426 176.606 131.245 177.533Z" fill="#240A19"/>
<path d="M159.318 171.668C159.429 171.869 159.491 172.094 159.5 172.324C159.509 172.553 159.463 172.782 159.367 172.991C159.215 173.22 159.019 173.416 158.79 173.568C158.561 173.72 158.304 173.825 158.034 173.875C156.602 174.285 155.082 174.273 153.656 173.841C153.439 173.798 153.232 173.712 153.049 173.588C152.865 173.464 152.707 173.305 152.586 173.12C151.914 171.793 153.609 169.827 154.895 169.645C155.742 169.586 156.591 169.741 157.363 170.094C158.136 170.448 158.807 170.989 159.318 171.668Z" fill="#240A19"/>
<path d="M113.599 185.037C110.546 185.228 107.316 186.357 105.662 188.932C103.65 192.062 104.717 196.522 107.435 199.063C108.864 200.26 110.521 201.156 112.305 201.697C114.089 202.238 115.964 202.412 117.817 202.209C118.656 202.241 119.492 202.084 120.262 201.748C121.032 201.413 121.717 200.908 122.265 200.271C122.607 199.709 122.838 199.086 122.948 198.437C123.596 194.933 123.118 191.314 121.584 188.098C120.27 185.26 116.38 184.863 113.599 185.037Z" fill="#FF836D"/>
<path d="M112.414 191.795C113.361 192.061 114.236 192.538 114.973 193.189C115.711 193.841 116.292 194.65 116.673 195.557" stroke="#0E1219" stroke-width="0.49179" stroke-linecap="round" stroke-linejoin="round"/>
<path d="M110.324 185.53C113.837 185.37 117.342 185.993 120.586 187.352C121.413 185.561 121.764 183.587 121.604 181.621C121.444 179.655 120.779 177.763 119.674 176.13C122.473 174.762 123.802 171.797 124.595 168.782C124.916 167.67 125.096 166.522 125.13 165.364C125.138 163.707 124.676 162.081 123.796 160.677C122.916 159.272 121.655 158.147 120.16 157.433C118.665 156.719 116.998 156.445 115.353 156.643C113.709 156.841 112.154 157.503 110.871 158.551C108.078 160.835 106.967 164.605 106.603 168.197C106.004 174.108 107.782 180.16 110.324 185.53Z" fill="#240A19"/>
<path d="M115.898 185.58C117.429 187.291 118.642 189.261 119.479 191.399C120.484 189.451 121.173 187.355 121.519 185.19C121.747 184.234 121.761 183.239 121.56 182.278C121.453 181.798 121.225 181.354 120.898 180.988C120.571 180.622 120.155 180.346 119.691 180.187C119.145 180.083 118.581 180.135 118.063 180.34C117.546 180.544 117.098 180.891 116.77 181.34C116.077 182.205 116.163 184.503 115.898 185.58Z" fill="#240A19"/>
<path d="M118.248 156.572C118.815 157.147 119.52 157.566 120.295 157.79C122.755 158.774 125.381 159.274 128.03 159.262C130.698 159.239 133.269 158.263 135.282 156.511C139.928 159.151 145.266 160.316 150.589 159.85C152.69 159.658 155.072 158.975 155.914 157.04C156.196 156.09 156.202 155.079 155.932 154.126C155.662 153.172 155.127 152.315 154.389 151.655C152.683 149.966 150.61 148.695 148.332 147.94C143.104 146.022 137.428 145.682 132.009 146.962C126.63 148.245 122.016 152.522 118.248 156.572Z" fill="#240A19"/>
<path d="M121.902 220.879C121.902 220.879 138.977 226.756 153.509 218.031C166.311 221.513 178.546 226.818 189.838 233.785L193.229 343.578C193.229 343.578 121.054 356.423 94.8967 342.124L90.6582 241.783L121.902 220.879Z" fill="#FEE9E8"/>
<path d="M91.5069 337.52C91.5069 337.52 76.0061 486.463 75.5218 507.234C75.0373 528.005 71.1621 617.168 71.1621 617.168L111.852 618.181L139.946 427.68L165.135 614.129L205.824 614.635L193.23 343.852L91.5069 337.52Z" fill="#FF8F33"/>
<path d="M86.6348 344.717C124.256 350.882 162.461 352.707 200.498 350.154" stroke="#0E1219" stroke-width="0.38479" stroke-linecap="round" stroke-linejoin="round"/>
<path d="M155.844 341.396C155.742 344.708 155.64 348.02 155.538 351.332C155.371 356.739 155.78 361.91 155.897 367.318C155.959 368.205 155.892 369.095 155.699 369.963C155.406 371.014 154.751 371.929 153.85 372.545C153.328 372.93 152.691 373.127 152.043 373.104C151.546 373.025 151.079 372.815 150.691 372.494C150.303 372.174 150.008 371.755 149.836 371.282C149.506 370.332 149.351 369.33 149.379 368.324L149.096 359.575" stroke="#0E1219" stroke-width="0.38479" stroke-linecap="round" stroke-linejoin="round"/>
<path d="M152.237 345.941C152.237 346.481 152.077 347.008 151.777 347.456C151.478 347.905 151.052 348.254 150.555 348.461C150.057 348.667 149.509 348.721 148.98 348.616C148.452 348.511 147.966 348.251 147.585 347.87C147.204 347.488 146.945 347.002 146.839 346.473C146.734 345.944 146.788 345.396 146.995 344.898C147.201 344.4 147.55 343.974 147.998 343.674C148.446 343.375 148.973 343.215 149.512 343.215C149.87 343.215 150.224 343.285 150.555 343.422C150.885 343.559 151.186 343.76 151.439 344.013C151.692 344.267 151.892 344.567 152.029 344.898C152.166 345.229 152.237 345.583 152.237 345.941Z" stroke="#0E1219" stroke-width="0.38479" stroke-linecap="round" stroke-linejoin="round"/>
<path d="M154.962 392.779L139.946 427.68L111.85 618.18" stroke="#0E1219" stroke-width="0.52463" stroke-linecap="round" stroke-linejoin="round"/>
<path d="M144.789 417.742L172.036 614.06" stroke="#0E1219" stroke-width="0.38479" stroke-linecap="round" stroke-linejoin="round"/>
<path d="M123.96 366.356C122.508 396.657 120.09 414.356 120.09 414.356C111.695 416.656 102.899 417.088 94.3194 415.622C85.74 414.156 77.5857 410.827 70.4297 405.869C70.4297 405.869 91.2611 326.615 89.326 308.431C87.3908 290.262 87.3908 244.455 87.3908 244.455C93.1536 239.075 99.3343 234.161 105.875 229.76C106.045 229.632 106.216 229.532 106.387 229.418C110.415 226.705 114.722 224.432 119.236 222.641C119.236 222.641 125.411 336.069 123.96 366.356Z" fill="#324D63"/>
<path d="M138.916 315.161L97.8638 317.16C98.0389 317.425 98.1502 317.727 98.189 318.042C98.2278 318.357 98.193 318.677 98.0874 318.977C97.9817 319.276 97.8082 319.547 97.5803 319.768C97.3523 319.989 97.0763 320.154 96.7739 320.25C94.4125 321.341 85.1484 320.432 87.1465 314.434C86.7419 313.651 86.5157 312.789 86.4843 311.909C86.4528 311.029 86.617 310.153 86.9648 309.344C86.7184 308.441 86.6886 307.493 86.8781 306.577C87.0675 305.661 87.4707 304.803 88.0548 304.072C88.0548 304.072 87.5098 300.619 89.6895 299.528C91.8694 298.437 137.463 296.074 137.463 296.074L138.916 315.161Z" fill="#FF836D"/>
<path d="M205.336 413.13C182.811 423.795 164.896 412.888 164.896 412.888L160.4 288.808L160.372 287.726L157.867 218.752L172.708 225.402L173.718 225.857L191.832 233.959L205.336 413.13Z" fill="#324D63"/>
<path d="M113.131 235.142C109.314 238.817 106.174 243.136 103.854 247.9C105.334 249.666 106.799 251.432 108.279 253.211C109.802 255.034 111.324 256.871 112.847 258.694C112.87 258.721 112.888 258.752 112.899 258.786C112.911 258.82 112.915 258.856 112.912 258.892C112.91 258.928 112.9 258.962 112.884 258.994C112.868 259.026 112.845 259.055 112.818 259.078C112.766 259.122 112.701 259.147 112.633 259.149C112.592 259.149 112.552 259.141 112.515 259.123C112.478 259.106 112.446 259.081 112.42 259.05C110.897 257.227 109.375 255.39 107.852 253.567C106.344 251.745 104.836 249.932 103.327 248.128C103.293 248.09 103.27 248.043 103.263 247.992C103.255 247.942 103.263 247.89 103.285 247.843C105.571 243.02 108.709 238.65 112.548 234.943C110.547 232.945 108.305 231.204 105.874 229.76C106.045 229.632 106.216 229.532 106.387 229.418C108.846 230.908 111.111 232.697 113.131 234.743C113.158 234.769 113.18 234.8 113.194 234.834C113.209 234.869 113.217 234.906 113.217 234.943C113.217 234.98 113.209 235.017 113.194 235.051C113.18 235.085 113.158 235.116 113.131 235.142V235.142Z" fill="#0E1219"/>
<path d="M128.26 320.674C128.26 320.674 175.186 330.611 198.316 322.613" stroke="#0E1219" stroke-width="0.38479" stroke-linecap="round" stroke-linejoin="round"/>
<path d="M87.388 244.449C87.388 244.449 59.5351 271.352 75.278 303.102C89.2221 331.225 119.116 307.707 124.202 302.375C129.288 297.043 141.883 268.201 141.883 268.201L120.327 251.236L103.615 263.839L87.388 244.449Z" fill="#324D63"/>
<path d="M120.631 251.964C120.631 251.964 135.526 234.695 136.071 233.241C136.616 231.787 138.614 210.701 140.431 209.246C142.247 207.792 154.599 202.703 156.052 205.611C156.052 205.611 160.23 205.247 160.594 208.338C160.594 208.338 165.135 208.338 164.953 211.064C164.953 211.064 167.133 214.518 167.133 216.881C167.133 219.244 163.682 223.243 161.684 223.061C161.684 223.061 161.684 231.059 158.595 235.422C155.508 239.785 146.425 247.056 146.425 247.056L136.071 263.597L120.631 251.964Z" fill="#FF836D"/>
<path d="M136.07 233.695C136.07 233.695 138.522 211.519 140.43 209.247C142.337 206.974 154.871 200.885 156.597 205.338C156.597 205.338 160.23 205.066 160.593 208.338C160.593 208.338 164.589 208.156 164.952 211.064C164.952 211.064 167.586 215.063 167.041 217.608C166.496 220.153 164.317 223.062 161.683 223.062" stroke="#0E1219" stroke-width="0.38479" stroke-linecap="round" stroke-linejoin="round"/>
<path d="M156.795 205.273C153.306 205.905 149.932 207.06 146.787 208.7" stroke="#0E1219" stroke-width="0.38479" stroke-linecap="round" stroke-linejoin="round"/>
<path d="M160.878 208.426C157.301 208.726 153.798 209.618 150.512 211.063" stroke="#0E1219" stroke-width="0.38479" stroke-linecap="round" stroke-linejoin="round"/>
<path d="M165.074 211.246C161.254 211.712 157.51 212.664 153.932 214.079" stroke="#0E1219" stroke-width="0.38479" stroke-linecap="round" stroke-linejoin="round"/>
<path d="M156.736 237.561C158.34 236.052 159.552 234.175 160.269 232.093C161.438 228.688 161.208 224.961 162.041 221.459C162.215 220.356 162.751 219.341 163.565 218.576" stroke="#0E1219" stroke-width="0.38479" stroke-linecap="round" stroke-linejoin="round"/>
<path d="M93.3828 276.502L120.449 251.781L141.883 268.201" stroke="#0E1219" stroke-width="0.38479" stroke-linecap="round" stroke-linejoin="round"/>
<path d="M110.73 260.598C120.876 265.172 130.446 271.09 136.585 280.378" stroke="#0E1219" stroke-width="0.38479" stroke-linecap="round" stroke-linejoin="round"/>
<path d="M73.4258 299.383C79.1416 298.669 84.9366 299.777 89.9874 302.548C92.4883 303.946 94.6862 305.828 96.453 308.085C98.2197 310.341 99.52 312.927 100.278 315.691" stroke="#0E1219" stroke-width="0.38479" stroke-linecap="round" stroke-linejoin="round"/>
<path d="M191.716 233.967C191.716 233.967 208.427 242.45 213.756 269.353C219.084 296.255 213.264 316.565 195.349 324.128C179.848 330.672 128.26 320.674 128.26 320.674L129.471 294.559L183.481 284.137L191.716 233.967Z" fill="#324D63"/>
<path d="M129.471 294.56L182.936 284.684" stroke="#0E1219" stroke-width="0.38479" stroke-linecap="round" stroke-linejoin="round"/>
<path d="M180.023 284.925C180.124 276.916 180.54 268.919 181.269 260.934" stroke="#0E1219" stroke-width="0.38479" stroke-linecap="round" stroke-linejoin="round"/>
<path d="M191.303 324.071C192.941 318.988 195.866 314.415 199.793 310.796C203.72 307.178 208.515 304.638 213.712 303.422" stroke="#0E1219" stroke-width="0.38479" stroke-linecap="round" stroke-linejoin="round"/>
<path d="M178.954 247.957L160.542 288.681C160.53 288.712 160.51 288.74 160.486 288.762C160.461 288.784 160.431 288.8 160.399 288.809C160.364 288.827 160.325 288.837 160.286 288.838C160.246 288.84 160.206 288.83 160.172 288.809C160.138 288.795 160.108 288.773 160.083 288.746C160.058 288.719 160.038 288.687 160.026 288.652C160.014 288.617 160.01 288.58 160.013 288.544C160.016 288.507 160.026 288.471 160.044 288.439L160.371 287.727L178.371 247.9L167.101 235.427C167.055 235.365 167.03 235.29 167.03 235.213C167.048 235.137 167.088 235.068 167.144 235.014L175.169 228.763L172.708 225.402L173.718 225.858L175.767 228.649C175.79 228.677 175.807 228.709 175.817 228.744C175.827 228.778 175.831 228.814 175.827 228.85C175.823 228.886 175.811 228.921 175.794 228.952C175.776 228.984 175.753 229.011 175.724 229.033L167.727 235.27L178.897 247.658C178.937 247.696 178.963 247.745 178.973 247.799C178.983 247.852 178.977 247.908 178.954 247.957V247.957Z" fill="#0E1219"/>
<path d="M201.856 71.6335C208.751 39.7087 188.478 8.23496 156.576 1.33494C124.674 -5.56508 93.2218 14.7215 86.3267 46.6463C79.4315 78.571 99.7038 110.045 131.606 116.945C163.509 123.845 194.96 103.558 201.856 71.6335Z" fill="#FEE9E8"/>
<path d="M165.514 127.643C167.758 127.643 169.577 125.823 169.577 123.578C169.577 121.332 167.758 119.512 165.514 119.512C163.27 119.512 161.451 121.332 161.451 123.578C161.451 125.823 163.27 127.643 165.514 127.643Z" fill="#FEE9E8"/>
<path d="M162.559 140.95C164.803 140.95 166.622 139.13 166.622 136.884C166.622 134.639 164.803 132.818 162.559 132.818C160.315 132.818 158.496 134.639 158.496 136.884C158.496 139.13 160.315 140.95 162.559 140.95Z" fill="#FEE9E8"/>
<path d="M154.557 150.807C156.733 150.807 158.497 149.042 158.497 146.865C158.497 144.687 156.733 142.922 154.557 142.922C152.381 142.922 150.617 144.687 150.617 146.865C150.617 149.042 152.381 150.807 154.557 150.807Z" fill="#FEE9E8"/>
<path d="M143.36 65.4255L142.879 65.5444C142.616 65.5509 142.357 65.4814 142.133 65.3443C141.91 65.2073 141.73 65.0084 141.616 64.7716C140.752 63.118 140.278 61.2877 140.233 59.4221C140.233 55.0837 143.12 52.468 146.126 49.7342C147.222 48.7554 148.228 47.6813 149.134 46.5243C149.649 45.8356 149.942 45.0064 149.975 44.1469C149.975 41.8288 147.991 40.6994 145.826 40.6994C143.373 40.8604 141.036 41.797 139.15 43.3742C138.903 43.551 138.611 43.6541 138.308 43.6717C138.124 43.668 137.944 43.6168 137.786 43.5231C137.628 43.4293 137.497 43.2962 137.405 43.1366L135.301 40.0456C135.124 39.8287 135.038 39.5519 135.06 39.2729C135.063 39.0712 135.107 38.8723 135.19 38.6884C135.273 38.5044 135.392 38.3394 135.541 38.2033C138.443 35.6686 142.154 34.256 146.006 34.2207C152.14 34.2207 156.832 37.8467 156.832 44.0281C156.832 47.9509 154.968 50.4471 152.261 53.1219L151.119 54.2511C150.054 55.1779 149.068 56.1918 148.171 57.2824C147.605 57.9701 147.287 58.8288 147.27 59.7195C147.292 60.6419 147.496 61.5509 147.87 62.3942C147.927 62.5684 147.967 62.7475 147.991 62.9293C147.987 63.1403 147.925 63.3461 147.81 63.5236C147.661 63.6983 147.477 63.8401 147.27 63.9398L143.36 65.4255ZM139.451 74.579C139.453 73.9266 139.585 73.2812 139.837 72.6798C140.09 72.0783 140.458 71.5327 140.922 71.0743C141.386 70.6159 141.936 70.2537 142.54 70.0085C143.144 69.7634 143.79 69.6401 144.442 69.6457C145.095 69.637 145.743 69.7582 146.349 70.0023C146.955 70.2463 147.506 70.6083 147.971 71.0672C148.435 71.5262 148.804 72.073 149.056 72.6758C149.308 73.2787 149.438 73.9256 149.438 74.579C149.438 75.2324 149.308 75.8793 149.056 76.4822C148.804 77.085 148.435 77.6318 147.971 78.0907C147.506 78.5497 146.955 78.9117 146.349 79.1557C145.743 79.3998 145.095 79.521 144.442 79.5123C143.79 79.5179 143.144 79.3946 142.54 79.1494C141.936 78.9043 141.386 78.5421 140.922 78.0837C140.458 77.6253 140.09 77.0797 139.837 76.4782C139.585 75.8768 139.453 75.2313 139.451 74.579Z" fill="#433D3B"/>
<path d="M57.9561 208.567L57.5662 208.881C57.3284 208.999 57.0616 209.045 56.798 209.015C56.5343 208.985 56.2849 208.879 56.0799 208.71C54.5853 207.563 53.3736 206.088 52.5382 204.398C50.6931 200.423 52.226 196.798 53.818 193.013C54.4059 191.65 54.8712 190.238 55.2083 188.792C55.3884 187.942 55.3051 187.057 54.9695 186.256C53.9834 184.132 51.6848 183.942 49.7013 184.864C47.5231 186.056 45.7796 187.909 44.7226 190.157C44.5717 190.424 44.3483 190.642 44.0784 190.787C43.9087 190.863 43.7223 190.892 43.5376 190.874C43.3528 190.856 43.1761 190.789 43.0245 190.682L39.7822 188.746C39.528 188.622 39.3312 188.405 39.2326 188.14C39.15 187.954 39.1061 187.753 39.1036 187.549C39.1012 187.346 39.1403 187.143 39.2185 186.955C40.7993 183.398 43.5995 180.524 47.1131 178.852C52.733 176.24 58.5721 177.564 61.1999 183.227C62.8683 186.821 62.2212 189.902 60.8791 193.505L60.3126 195.027C59.7316 196.329 59.2595 197.678 58.9012 199.059C58.6745 199.93 58.7486 200.852 59.1117 201.675C59.5238 202.511 60.0977 203.257 60.8 203.87C60.9256 204.005 61.0386 204.152 61.1377 204.308C61.2235 204.503 61.2533 204.719 61.2239 204.93C61.1616 205.154 61.0533 205.362 60.906 205.541L57.9561 208.567ZM58.2669 218.618C57.9917 218.019 57.8375 217.372 57.8131 216.713C57.7887 216.055 57.8945 215.398 58.1245 214.78C58.3545 214.163 58.7041 213.597 59.1533 213.115C59.6026 212.633 60.1425 212.244 60.7421 211.972C61.3366 211.686 61.9817 211.522 62.6401 211.488C63.2985 211.454 63.9571 211.551 64.5777 211.774C65.1982 211.997 65.7684 212.341 66.2552 212.786C66.7419 213.231 67.1356 213.768 67.4132 214.366C67.6909 214.965 67.847 215.612 67.8727 216.272C67.8983 216.931 67.7928 217.589 67.5625 218.207C67.3321 218.825 66.9813 219.391 66.5306 219.873C66.0798 220.354 65.538 220.741 64.9366 221.011C64.3419 221.294 63.6973 221.457 63.0396 221.49C62.382 221.522 61.7243 221.425 61.1045 221.202C60.4847 220.98 59.915 220.637 59.428 220.194C58.941 219.75 58.5464 219.215 58.2668 218.618H58.2669Z" fill="#FEE9E8"/>
<path d="M229.3 363.743C229.555 363.136 229.927 362.585 230.395 362.121C230.864 361.658 231.419 361.292 232.029 361.044C232.639 360.797 233.293 360.672 233.951 360.678C234.61 360.683 235.26 360.819 235.866 361.077C236.478 361.323 237.035 361.687 237.505 362.15C237.975 362.613 238.348 363.164 238.604 363.772C238.859 364.38 238.991 365.033 238.993 365.693C238.994 366.352 238.864 367.006 238.611 367.615C238.358 368.224 237.987 368.777 237.519 369.241C237.051 369.706 236.496 370.073 235.885 370.321C235.274 370.569 234.62 370.693 233.961 370.686C233.302 370.679 232.65 370.541 232.045 370.281C231.434 370.033 230.879 369.668 230.41 369.205C229.942 368.742 229.569 368.191 229.314 367.583C229.059 366.976 228.926 366.324 228.924 365.665C228.921 365.006 229.049 364.353 229.3 363.743V363.743ZM236.491 356.721L235.995 356.645C235.748 356.549 235.533 356.384 235.377 356.17C235.221 355.955 235.13 355.7 235.116 355.435C234.951 353.557 235.218 351.666 235.897 349.908C237.577 345.861 241.283 344.54 245.147 343.155C246.547 342.667 247.902 342.056 249.194 341.328C249.942 340.885 250.537 340.226 250.901 339.437C251.8 337.274 250.384 335.45 248.365 334.61C246.015 333.81 243.472 333.777 241.102 334.517C240.803 334.586 240.491 334.569 240.201 334.468C240.031 334.393 239.883 334.276 239.772 334.127C239.66 333.978 239.59 333.803 239.566 333.618L238.801 329.92C238.72 329.649 238.747 329.357 238.876 329.106C238.956 328.919 239.075 328.75 239.223 328.611C239.371 328.471 239.546 328.363 239.737 328.294C243.426 327.055 247.436 327.176 251.042 328.636C256.764 331.016 259.737 336.217 257.343 341.984C255.823 345.643 253.118 347.249 249.558 348.694L248.053 349.306C246.701 349.757 245.39 350.32 244.133 350.99C243.337 351.411 242.708 352.089 242.347 352.914C242.01 353.783 241.848 354.711 241.871 355.643C241.856 355.827 241.824 356.01 241.776 356.188C241.691 356.384 241.553 356.551 241.378 356.672C241.171 356.778 240.944 356.838 240.712 356.85L236.491 356.721Z" fill="#FEE9E8"/>
</g>
<defs>
<clipPath id="clip0_2566_41084">
<rect width="273" height="668" fill="white"/>
</clipPath>
</defs>
</svg>
