<svg width="13" height="16" viewBox="0 0 13 16" fill="none" xmlns="http://www.w3.org/2000/svg">
<path d="M10.5859 0H2.58594C2.0555 0 1.5468 0.210714 1.17172 0.585786C0.796651 0.960859 0.585938 1.46957 0.585938 2V14C0.585938 14.5304 0.796651 15.0391 1.17172 15.4142C1.5468 15.7893 2.0555 16 2.58594 16H10.5859C11.1164 16 11.6251 15.7893 12.0002 15.4142C12.3752 15.0391 12.5859 14.5304 12.5859 14V2C12.5859 1.46957 12.3752 0.960859 12.0002 0.585786C11.6251 0.210714 11.1164 0 10.5859 0ZM3.58594 4H9.58594C9.71855 4 9.84572 4.05268 9.93949 4.14645C10.0333 4.24021 10.0859 4.36739 10.0859 4.5C10.0859 4.63261 10.0333 4.75979 9.93949 4.85355C9.84572 4.94732 9.71855 5 9.58594 5H3.58594C3.45333 5 3.32615 4.94732 3.23238 4.85355C3.13862 4.75979 3.08594 4.63261 3.08594 4.5C3.08594 4.36739 3.13862 4.24021 3.23238 4.14645C3.32615 4.05268 3.45333 4 3.58594 4ZM3.08594 6.5C3.08594 6.36739 3.13862 6.24021 3.23238 6.14645C3.32615 6.05268 3.45333 6 3.58594 6H9.58594C9.71855 6 9.84572 6.05268 9.93949 6.14645C10.0333 6.24021 10.0859 6.36739 10.0859 6.5C10.0859 6.63261 10.0333 6.75978 9.93949 6.85355C9.84572 6.94732 9.71855 7 9.58594 7H3.58594C3.45333 7 3.32615 6.94732 3.23238 6.85355C3.13862 6.75978 3.08594 6.63261 3.08594 6.5ZM3.58594 8H9.58594C9.71855 8 9.84572 8.05268 9.93949 8.14645C10.0333 8.24021 10.0859 8.36739 10.0859 8.5C10.0859 8.63261 10.0333 8.75979 9.93949 8.85355C9.84572 8.94732 9.71855 9 9.58594 9H3.58594C3.45333 9 3.32615 8.94732 3.23238 8.85355C3.13862 8.75979 3.08594 8.63261 3.08594 8.5C3.08594 8.36739 3.13862 8.24021 3.23238 8.14645C3.32615 8.05268 3.45333 8 3.58594 8ZM3.58594 10H6.58594C6.71855 10 6.84572 10.0527 6.93949 10.1464C7.03326 10.2402 7.08594 10.3674 7.08594 10.5C7.08594 10.6326 7.03326 10.7598 6.93949 10.8536C6.84572 10.9473 6.71855 11 6.58594 11H3.58594C3.45333 11 3.32615 10.9473 3.23238 10.8536C3.13862 10.7598 3.08594 10.6326 3.08594 10.5C3.08594 10.3674 3.13862 10.2402 3.23238 10.1464C3.32615 10.0527 3.45333 10 3.58594 10Z" fill="black" fill-opacity="0.5"/>
</svg>
