<svg width="15" height="21" viewBox="0 0 15 21" fill="none" xmlns="http://www.w3.org/2000/svg">
<path d="M7.5 0.5C5.5116 0.502457 3.60531 1.33105 2.1993 2.80402C0.793282 4.27699 0.00235375 6.27405 7.97923e-06 8.35714C-0.00237354 10.0594 0.528403 11.7156 1.51092 13.0714C1.51092 13.0714 1.71546 13.3536 1.74887 13.3943L7.5 20.5L13.2539 13.3907C13.2839 13.3529 13.4891 13.0714 13.4891 13.0714L13.4898 13.0693C14.4718 11.714 15.0023 10.0587 15 8.35714C14.9976 6.27405 14.2067 4.27699 12.8007 2.80402C11.3947 1.33105 9.4884 0.502457 7.5 0.5ZM7.5 11.2143C6.9606 11.2143 6.43331 11.0467 5.98481 10.7328C5.53631 10.4188 5.18675 9.9726 4.98033 9.45052C4.77391 8.92845 4.7199 8.35397 4.82513 7.79974C4.93037 7.24551 5.19011 6.73642 5.57153 6.33684C5.95294 5.93726 6.4389 5.66514 6.96794 5.5549C7.49697 5.44466 8.04534 5.50124 8.54368 5.71749C9.04202 5.93374 9.46797 6.29994 9.76764 6.7698C10.0673 7.23965 10.2273 7.79205 10.2273 8.35714C10.2264 9.11461 9.93874 9.84079 9.42747 10.3764C8.91621 10.912 8.22304 11.2133 7.5 11.2143Z" fill="black" fill-opacity="0.8"/>
</svg>
