<svg width="18" height="14" viewBox="0 0 18 14" fill="none" xmlns="http://www.w3.org/2000/svg">
<path d="M15.75 0H1.75C0.784875 0 0 0.784875 0 1.75V12.25C0 13.2151 0.784875 14 1.75 14H15.75C16.7151 14 17.5 13.2151 17.5 12.25V1.75C17.5 0.784875 16.7151 0 15.75 0ZM3.9375 2.625C4.2856 2.625 4.61944 2.76328 4.86558 3.00942C5.11172 3.25556 5.25 3.5894 5.25 3.9375C5.25 4.2856 5.11172 4.61944 4.86558 4.86558C4.61944 5.11172 4.2856 5.25 3.9375 5.25C3.5894 5.25 3.25556 5.11172 3.00942 4.86558C2.76328 4.61944 2.625 4.2856 2.625 3.9375C2.625 3.5894 2.76328 3.25556 3.00942 3.00942C3.25556 2.76328 3.5894 2.625 3.9375 2.625ZM8.75 11.375H2.625L6.125 7L7.4375 8.75L10.0625 5.25L14.875 11.375H8.75Z" fill="black" fill-opacity="0.5"/>
</svg>
