<svg width="13" height="16" viewBox="0 0 13 16" fill="none" xmlns="http://www.w3.org/2000/svg">
<path d="M6.69364 10C8.37042 10 9.72935 8.65714 9.72935 7V3C9.72935 1.34286 8.37042 0 6.69364 0C5.01685 0 3.65792 1.34286 3.65792 3V7C3.65792 8.65714 5.01685 10 6.69364 10ZM12.5865 6.96429C12.5865 6.88571 12.5222 6.82143 12.4436 6.82143H11.3722C11.2936 6.82143 11.2294 6.88571 11.2294 6.96429C11.2294 9.46964 9.19899 11.5 6.69364 11.5C4.18828 11.5 2.15792 9.46964 2.15792 6.96429C2.15792 6.88571 2.09364 6.82143 2.01507 6.82143H0.943638C0.865067 6.82143 0.800781 6.88571 0.800781 6.96429C0.800781 9.97679 3.0615 12.4625 5.97935 12.8143V14.6429H3.38471C3.14007 14.6429 2.94364 14.8982 2.94364 15.2143V15.8571C2.94364 15.9357 2.99364 16 3.05435 16H10.3329C10.3936 16 10.4436 15.9357 10.4436 15.8571V15.2143C10.4436 14.8982 10.2472 14.6429 10.0026 14.6429H7.33649V12.8232C10.2883 12.5018 12.5865 10.0018 12.5865 6.96429Z" fill="black" fill-opacity="0.5"/>
</svg>
