<svg width="17" height="16" viewBox="0 0 17 16" fill="none" xmlns="http://www.w3.org/2000/svg">
<path d="M2.98594 10V8.8H4.18594V10H2.98594Z" fill="black" fill-opacity="0.5"/>
<path fill-rule="evenodd" clip-rule="evenodd" d="M11.7859 16H2.18594C1.76159 16 1.35462 15.8314 1.05457 15.5314C0.754508 15.2313 0.585938 14.8243 0.585938 14.4V1.6C0.585937 1.17565 0.754508 0.768687 1.05457 0.468629C1.35462 0.168571 1.76159 0 2.18594 0H11.7859C12.2103 0 12.6173 0.168571 12.9173 0.468629C13.2174 0.768687 13.3859 1.17565 13.3859 1.6V14.4C13.3859 14.8243 13.2174 15.2313 12.9173 15.5314C12.6173 15.8314 12.2103 16 11.7859 16ZM6.18594 3.6C6.18594 3.49391 6.22808 3.39217 6.30309 3.31716C6.37811 3.24214 6.47985 3.2 6.58594 3.2H11.3859C11.492 3.2 11.5938 3.24214 11.6688 3.31716C11.7438 3.39217 11.7859 3.49391 11.7859 3.6C11.7859 3.70609 11.7438 3.80783 11.6688 3.88284C11.5938 3.95786 11.492 4 11.3859 4H6.58594C6.47985 4 6.37811 3.95786 6.30309 3.88284C6.22808 3.80783 6.18594 3.70609 6.18594 3.6ZM6.58594 4.8C6.47985 4.8 6.37811 4.84214 6.30309 4.91716C6.22808 4.99217 6.18594 5.09391 6.18594 5.2C6.18594 5.30609 6.22808 5.40783 6.30309 5.48284C6.37811 5.55786 6.47985 5.6 6.58594 5.6H11.3859C11.492 5.6 11.5938 5.55786 11.6688 5.48284C11.7438 5.40783 11.7859 5.30609 11.7859 5.2C11.7859 5.09391 11.7438 4.99217 11.6688 4.91716C11.5938 4.84214 11.492 4.8 11.3859 4.8H6.58594ZM5.26874 3.3172C5.34373 3.39221 5.38585 3.49393 5.38585 3.6C5.38585 3.70607 5.34373 3.80779 5.26874 3.8828L3.38594 5.7656L2.30314 4.6828C2.26493 4.6459 2.23446 4.60176 2.2135 4.55296C2.19253 4.50416 2.1815 4.45167 2.18104 4.39856C2.18058 4.34545 2.1907 4.29278 2.21081 4.24362C2.23092 4.19446 2.26062 4.1498 2.29818 4.11224C2.33574 4.07469 2.3804 4.04498 2.42956 4.02487C2.47871 4.00476 2.53139 3.99464 2.5845 3.9951C2.63761 3.99556 2.6901 4.0066 2.7389 4.02756C2.7877 4.04852 2.83184 4.079 2.86874 4.1172L3.38594 4.6344L4.70314 3.3172C4.77815 3.24221 4.87987 3.20009 4.98594 3.20009C5.092 3.20009 5.19373 3.24221 5.26874 3.3172ZM6.58594 8C6.47985 8 6.37811 8.04214 6.30309 8.11716C6.22808 8.19217 6.18594 8.29391 6.18594 8.4C6.18594 8.50609 6.22808 8.60783 6.30309 8.68284C6.37811 8.75786 6.47985 8.8 6.58594 8.8H11.3859C11.492 8.8 11.5938 8.75786 11.6688 8.68284C11.7438 8.60783 11.7859 8.50609 11.7859 8.4C11.7859 8.29391 11.7438 8.19217 11.6688 8.11716C11.5938 8.04214 11.492 8 11.3859 8H6.58594ZM6.18594 10C6.18594 9.89391 6.22808 9.79217 6.30309 9.71716C6.37811 9.64214 6.47985 9.6 6.58594 9.6H11.3859C11.492 9.6 11.5938 9.64214 11.6688 9.71716C11.7438 9.79217 11.7859 9.89391 11.7859 10C11.7859 10.1061 11.7438 10.2078 11.6688 10.2828C11.5938 10.3579 11.492 10.4 11.3859 10.4H6.58594C6.47985 10.4 6.37811 10.3579 6.30309 10.2828C6.22808 10.2078 6.18594 10.1061 6.18594 10ZM4.58594 8H2.58594C2.47985 8 2.37811 8.04214 2.30309 8.11716C2.22808 8.19217 2.18594 8.29391 2.18594 8.4V10.4C2.18594 10.5061 2.22808 10.6078 2.30309 10.6828C2.37811 10.7579 2.47985 10.8 2.58594 10.8H4.58594C4.69202 10.8 4.79377 10.7579 4.86878 10.6828C4.94379 10.6078 4.98594 10.5061 4.98594 10.4V8.4C4.98594 8.29391 4.94379 8.19217 4.86878 8.11716C4.79377 8.04214 4.69202 8 4.58594 8Z" fill="black" fill-opacity="0.5"/>
<path fill-rule="evenodd" clip-rule="evenodd" d="M16.5859 14.4L15.3859 16L14.1859 14.4V7.2H16.5859V14.4Z" fill="black" fill-opacity="0.5"/>
<path fill-rule="evenodd" clip-rule="evenodd" d="M14.9859 4.4H15.7859C15.9981 4.4 16.2016 4.48429 16.3516 4.63432C16.5017 4.78434 16.5859 4.98783 16.5859 5.2V6.8H14.1859V5.2C14.1859 4.98783 14.2702 4.78434 14.4203 4.63432C14.5703 4.48429 14.7738 4.4 14.9859 4.4Z" fill="black" fill-opacity="0.5"/>
</svg>
