<svg width="19" height="17" viewBox="0 0 19 17" fill="none" xmlns="http://www.w3.org/2000/svg">
<path d="M17.2328 6.13406L12.21 5.40408L9.96474 0.852135C9.90341 0.727506 9.80252 0.626615 9.67789 0.565289C9.36533 0.410986 8.98551 0.539572 8.82922 0.852135L6.58391 5.40408L1.56114 6.13406C1.42267 6.15384 1.29606 6.21912 1.19913 6.31803C1.08194 6.43848 1.01736 6.60053 1.01959 6.76856C1.02181 6.9366 1.09066 7.09688 1.21099 7.21418L4.84503 10.7572L3.98648 15.7602C3.96634 15.8766 3.97922 15.9963 4.02365 16.1057C4.06808 16.2151 4.14228 16.3099 4.23785 16.3793C4.33341 16.4488 4.44651 16.49 4.56432 16.4984C4.68213 16.5068 4.79994 16.482 4.90438 16.4269L9.39698 14.0648L13.8896 16.4269C14.0122 16.4922 14.1547 16.5139 14.2912 16.4902C14.6354 16.4308 14.8668 16.1044 14.8075 15.7602L13.9489 10.7572L17.583 7.21418C17.6819 7.11724 17.7472 6.99064 17.7669 6.85216C17.8204 6.50597 17.579 6.18549 17.2328 6.13406Z" fill="url(#paint0_linear_4262_6698)"/>
<path d="M17.2688 5.88665L17.2696 5.88677C17.7494 5.95806 18.0883 6.40324 18.0143 6.88874C17.9863 7.08219 17.8951 7.25836 17.7579 7.39273L17.7575 7.39318L14.2176 10.8445L15.0539 15.7177L17.2688 5.88665ZM17.2688 5.88665L12.3761 5.17559L10.1891 0.741758L17.2688 5.88665ZM8.60502 0.741542L8.60561 0.74033C8.82304 0.305476 9.35187 0.125539 9.78856 0.341118C9.9625 0.426786 10.1033 0.567596 10.1889 0.741542L8.60502 0.741542ZM8.60502 0.741542L6.41786 5.17559L1.52579 5.88657C1.52573 5.88658 1.52567 5.88658 1.52562 5.88659C1.33176 5.91433 1.15519 6.00569 1.02057 6.14305L1.02057 6.14305M8.60502 0.741542L1.02057 6.14305M1.02057 6.14305L1.01994 6.1437M1.02057 6.14305L1.01994 6.1437M1.01994 6.1437C0.856544 6.31164 0.766506 6.53758 0.769609 6.77187M1.01994 6.1437L0.769609 6.77187M0.769609 6.77187C0.772712 7.00616 0.868697 7.22963 1.03647 7.39318M0.769609 6.77187L1.03647 7.39318M1.03647 7.39318C1.03648 7.39319 1.03648 7.39319 1.03649 7.3932M1.03647 7.39318L1.03649 7.3932M1.03649 7.3932L4.57641 10.8445M1.03649 7.3932L4.57641 10.8445M4.57641 10.8445L3.74013 15.7176C3.74012 15.7177 3.74011 15.7177 3.7401 15.7178L3.74008 15.7179L3.98648 15.7602C3.96634 15.8766 3.97922 15.9963 4.02365 16.1057C4.06808 16.2151 4.14228 16.3099 4.23785 16.3793C4.33341 16.4488 4.44651 16.49 4.56432 16.4984L4.57641 10.8445ZM5.02111 16.648L9.39698 14.3473L13.7721 16.6476C13.7724 16.6477 13.7728 16.6479 13.7731 16.6481C13.9456 16.7396 14.1442 16.7695 14.334 16.7365C14.8134 16.6536 15.1367 16.1986 15.0539 15.7179L5.02111 16.648ZM5.02111 16.648C5.02102 16.648 5.02094 16.648 5.02085 16.6481L5.02111 16.648Z" stroke="black" stroke-opacity="0.4" stroke-width="0.5"/>
<defs>
<linearGradient id="paint0_linear_4262_6698" x1="0.519531" y1="7" x2="18.0195" y2="7" gradientUnits="userSpaceOnUse">
<stop stop-color="#F9993A"/>
<stop offset="0.500806" stop-color="#F9993A"/>
<stop offset="0.502849" stop-color="#F9993A" stop-opacity="0"/>
</linearGradient>
</defs>
</svg>
