<svg width="25" height="16" viewBox="0 0 25 16" fill="none" xmlns="http://www.w3.org/2000/svg">
<path d="M6.66667 0.5C3.91667 0.5 1.66667 2.75 1.66667 5.5C1.66667 7.15333 2.48083 8.625 3.72417 9.53667C1.52667 10.6267 0 12.8867 0 15.5H1.66667C1.66667 12.73 3.89667 10.5 6.66667 10.5C9.43667 10.5 11.6667 12.73 11.6667 15.5H13.3333C13.3333 12.73 15.5633 10.5 18.3333 10.5C21.1033 10.5 23.3333 12.73 23.3333 15.5H25C25 12.8858 23.4733 10.6267 21.2758 9.53667C21.9121 9.07305 22.43 8.46588 22.7875 7.76448C23.145 7.06309 23.332 6.28725 23.3333 5.5C23.3333 2.75 21.0833 0.5 18.3333 0.5C15.5833 0.5 13.3333 2.75 13.3333 5.5C13.3333 7.15333 14.1475 8.625 15.3908 9.53667C14.1733 10.1353 13.1655 11.0885 12.5 12.2708C11.8345 11.0885 10.8267 10.1353 9.60917 9.53667C10.2454 9.07305 10.7633 8.46588 11.1208 7.76448C11.4783 7.06309 11.6653 6.28725 11.6667 5.5C11.6667 2.75 9.41667 0.5 6.66667 0.5ZM6.66667 2.16667C8.51917 2.16667 10 3.6475 10 5.5C10 7.3525 8.51917 8.83333 6.66667 8.83333C4.81417 8.83333 3.33333 7.3525 3.33333 5.5C3.33333 3.6475 4.81417 2.16667 6.66667 2.16667ZM18.3333 2.16667C20.1858 2.16667 21.6667 3.6475 21.6667 5.5C21.6667 7.3525 20.1858 8.83333 18.3333 8.83333C16.4808 8.83333 15 7.3525 15 5.5C15 3.6475 16.4808 2.16667 18.3333 2.16667Z" fill="black"/>
</svg>
